<?xml version="1.0" encoding="UTF-8" standalone="no"?>
<!DOCTYPE svg PUBLIC "-//W3C//DTD SVG 1.1//EN" "http://www.w3.org/Graphics/SVG/1.1/DTD/svg11.dtd">
<svg width="100%" height="100%" viewBox="0 0 300 300" version="1.1" xmlns="http://www.w3.org/2000/svg" xmlns:xlink="http://www.w3.org/1999/xlink" xml:space="preserve" xmlns:serif="http://www.serif.com/" style="fill-rule:evenodd;clip-rule:evenodd;">
    <path d="M300,60L300,240C300,273.115 273.115,300 240,300L60,300C26.885,300 0,273.115 0,240L0,60C0,26.885 26.885,0 60,0L240,0C273.115,0 300,26.885 300,60Z" style="fill:rgb(17,17,22);"/>
    <g transform="matrix(1,0,0,1,7,-7)">
        <path d="M150,150L150,34C213.636,34 266,86.364 266,150L150,150Z" style="fill:rgb(245,216,74);fill-rule:nonzero;"/>
    </g>
    <g transform="matrix(1,0,0,1,7,7)">
        <path d="M150,150L266,150C266,213.636 213.636,266 150,266L150,150Z" style="fill:rgb(230,184,0);fill-rule:nonzero;"/>
    </g>
    <g transform="matrix(1,0,0,1,-7,7)">
        <path d="M150,150L150,266C86.364,266 34,213.636 34,150L150,150Z" style="fill:rgb(196,141,0);fill-rule:nonzero;"/>
    </g>
    <g transform="matrix(1,0,0,1,-7,-7)">
        <path d="M150,150L34,150C34,86.364 86.364,34 150,34L150,150Z" style="fill:rgb(122,85,0);fill-rule:nonzero;"/>
    </g>
    <circle cx="150" cy="150" r="42" style="fill:rgb(14,14,14);"/>
    <circle cx="150" cy="150" r="42" style="stroke:rgb(26,26,30);stroke-width:2px;"/>
</svg>
