<?xml version="1.0" encoding="UTF-8" standalone="no"?>
<!DOCTYPE svg PUBLIC "-//W3C//DTD SVG 1.1//EN" "http://www.w3.org/Graphics/SVG/1.1/DTD/svg11.dtd">
<svg width="100%" height="100%" viewBox="0 0 938 239" version="1.1" xmlns="http://www.w3.org/2000/svg" xmlns:xlink="http://www.w3.org/1999/xlink" xml:space="preserve" xmlns:serif="http://www.serif.com/" style="fill-rule:evenodd;clip-rule:evenodd;stroke-linejoin:round;stroke-miterlimit:2;">
    <g transform="matrix(0.1,0,0,-0.1,0,239)">
        <g>
            <path d="M1020,1769C687,1731 481,1631 409,1473C378,1405 366,1345 291,825C215,307 212,282 224,270C236,258 688,256 706,268C713,272 729,354 744,450C758,546 785,726 804,850C823,974 842,1098 845,1126C857,1219 906,1270 1005,1290C1032,1295 1131,1301 1223,1302C1326,1303 1394,1308 1399,1315C1406,1323 1480,1745 1480,1773C1480,1783 1115,1780 1020,1769Z" style="fill:white;fill-rule:nonzero;"/>
            <path d="M1555,1758C1552,1745 1543,1688 1534,1630C1508,1449 1462,1140 1441,1004C1408,787 1405,679 1429,585C1477,403 1602,299 1835,247C2102,187 2530,241 2796,367C2841,388 2851,398 2860,429C2865,449 2890,602 2915,770C2941,938 2981,1201 3005,1355C3065,1737 3068,1764 3063,1773C3061,1777 2944,1780 2805,1780L2550,1780L2545,1758C2538,1726 2504,1509 2470,1275C2398,784 2391,746 2374,733C2365,726 2332,716 2301,709C2270,703 2238,695 2230,692C2193,678 2030,701 1999,724C1968,747 1950,785 1950,829C1950,877 1961,950 2055,1538C2075,1660 2088,1765 2085,1770C2081,1776 1975,1780 1820,1780L1560,1780L1555,1758Z" style="fill:white;fill-rule:nonzero;"/>
            <path d="M3700,1790C3564,1772 3412,1732 3297,1681C3236,1654 3164,1605 3156,1584C3153,1575 3131,1441 3109,1286C2976,377 2964,285 2973,272C2980,263 3038,260 3223,262C3424,265 3464,267 3470,280C3475,288 3499,434 3524,605C3584,1012 3619,1238 3629,1275C3638,1314 3665,1326 3770,1340C3957,1366 4080,1313 4080,1208C4080,1186 3989,531 3960,347C3954,309 3952,275 3955,269C3962,258 4440,257 4455,268C4465,275 4466,281 4475,350C4478,369 4486,428 4494,480C4618,1302 4628,1435 4579,1540C4565,1571 4538,1612 4519,1633C4479,1677 4400,1731 4388,1724C4384,1721 4380,1724 4380,1729C4380,1735 4377,1739 4373,1738C4368,1737 4356,1741 4345,1747C4283,1781 4203,1792 3985,1795C3864,1797 3736,1795 3700,1790Z" style="fill:white;fill-rule:nonzero;"/>
        </g>
        <g>
            <path d="M5395,2169C5201,2141 5025,2044 4942,1920C4875,1820 4844,1731 4820,1570C4716,859 4640,324 4640,299L4640,270L5147,270L5153,317C5176,492 5273,1187 5276,1198C5278,1207 5325,1210 5464,1210L5648,1210L5654,1238C5657,1253 5669,1330 5680,1410C5691,1490 5702,1567 5705,1583L5710,1610L5525,1610C5411,1610 5339,1614 5335,1620C5326,1635 5349,1700 5377,1738C5422,1799 5468,1813 5623,1818C5715,1821 5763,1826 5765,1834C5766,1840 5778,1910 5790,1990C5802,2070 5814,2145 5817,2158L5822,2180L5639,2179C5538,2178 5428,2174 5395,2169Z" style="fill:rgb(255,208,0);fill-rule:nonzero;"/>
            <path d="M5956,2153C5947,2107 5910,1863 5910,1846C5910,1832 5938,1830 6140,1830C6278,1830 6370,1834 6370,1839C6370,1853 6408,2109 6416,2148L6423,2180L5962,2180L5956,2153Z" style="fill:rgb(255,208,0);fill-rule:nonzero;"/>
            <path d="M5840,1714C5840,1711 5829,1636 5815,1547C5802,1458 5754,1147 5709,855C5665,564 5626,313 5623,298L5618,270L5869,270C6007,270 6120,273 6120,278C6120,282 6125,312 6130,345C6135,378 6156,506 6175,630C6194,754 6215,882 6220,915C6226,948 6244,1063 6260,1170C6277,1277 6299,1419 6310,1485C6321,1551 6332,1631 6336,1663L6343,1720L6091,1720C5953,1720 5840,1717 5840,1714Z" style="fill:rgb(255,208,0);fill-rule:nonzero;"/>
            <path d="M6433,1668C6437,1639 6462,1491 6489,1340C6516,1189 6569,892 6605,680C6642,468 6673,289 6676,282C6679,272 6734,270 6925,272L7171,275L7369,665C7477,880 7641,1202 7733,1382C7825,1561 7900,1711 7900,1714C7900,1717 7793,1720 7662,1720L7425,1720L7351,1568C7311,1484 7217,1285 7142,1127C7044,919 7004,844 6999,857C6995,867 6984,936 6975,1010C6966,1084 6941,1273 6919,1429C6898,1585 6880,1715 6880,1717C6880,1718 6778,1720 6654,1720L6427,1720L6433,1668Z" style="fill:rgb(255,208,0);fill-rule:nonzero;"/>
            <path d="M8400,1751C8004,1703 7732,1398 7691,959C7659,610 7811,355 8107,264C8328,196 8757,223 8950,318L9005,345L9031,500C9045,585 9060,670 9064,687C9068,705 9068,720 9063,720C9058,720 9023,711 8985,701C8793,648 8564,624 8415,641C8316,652 8267,669 8227,708C8203,731 8170,780 8170,793C8170,795 8273,800 8398,804C8840,817 8984,851 9090,967C9195,1082 9218,1301 9141,1465C9080,1596 8944,1698 8782,1734C8697,1753 8493,1762 8400,1751ZM8669,1353C8718,1329 8734,1294 8718,1244C8694,1173 8603,1151 8338,1150L8191,1150L8201,1183C8225,1268 8313,1343 8418,1367C8492,1383 8621,1376 8669,1353Z" style="fill:rgb(255,208,0);fill-rule:nonzero;"/>
        </g>
    </g>
</svg>
